<svg width="50" height="50" viewBox="0 0 50 50" fill="none" xmlns="http://www.w3.org/2000/svg">
<circle cx="25" cy="25" r="25" fill="white"/>
<path d="M19.7279 12.4142C20.5089 11.6332 21.7753 11.6332 22.5563 12.4142L33.87 23.7279C34.6511 24.509 34.6511 25.7753 33.87 26.5563V26.5563C33.089 27.3374 31.8226 27.3374 31.0416 26.5563L19.7279 15.2426C18.9468 14.4616 18.9468 13.1953 19.7279 12.4142V12.4142Z" fill="#F5B544"/>
<path d="M19.7279 37.8703C18.9469 37.0892 18.9469 35.8229 19.7279 35.0418L32.4559 22.3139L33.8701 23.7281C34.6511 24.5092 34.6511 25.7755 33.8701 26.5566L22.5564 37.8703C21.7753 38.6513 20.509 38.6513 19.7279 37.8703V37.8703Z" fill="#F5B544"/>
</svg>
